<?xml version="1.0" ?><!DOCTYPE svg  PUBLIC '-//W3C//DTD SVG 1.1//EN'  'http://www.w3.org/Graphics/SVG/1.1/DTD/svg11.dtd'><svg enable-background="new 0 0 512 512" id="Layer_1" version="1.1" viewBox="0 0 512 512" xml:space="preserve" xmlns="http://www.w3.org/2000/svg" xmlns:xlink="http://www.w3.org/1999/xlink"><g><circle cx="256" cy="256" fill="#FFFC00" r="256"/><path d="M368.2,306.1   c-31.2-5.1-45.3-37.1-45.9-38.5c0-0.1-0.1-0.2-0.1-0.3c-1.6-3.2-2-5.9-1.1-7.9c1.7-4,8.2-6.1,12.6-7.4c1.3-0.4,2.5-0.8,3.4-1.2   c4.2-1.7,7.3-3.5,9.3-5.6c2.4-2.5,2.9-4.8,2.8-6.4c-0.1-3.7-2.9-7.1-7.5-8.7c-1.5-0.6-3.3-1-5.1-1c-1.2,0-3,0.2-4.7,1   c-3.7,1.7-6.9,2.6-9.7,2.8c-1.5-0.1-2.5-0.4-3.2-0.7c0.1-1.5,0.2-3,0.3-4.5V227c1-15.8,2.2-35.5-3-47.2c-3.6-8-8.4-14.9-14.3-20.5   c-5-4.7-10.7-8.5-17.1-11.3c-11.1-4.9-21.5-5.6-26.7-5.6l0,0c-0.2,0-0.4,0-0.6,0c-1.4,0-3.8,0-4,0c-5.2,0-15.6,0.7-26.7,5.6   c-6.4,2.8-12.1,6.6-17,11.3c-5.9,5.6-10.7,12.4-14.2,20.4c-5.2,11.7-4,31.3-3,47.1l0,0c0.1,1.7,0.2,3.5,0.3,5.2   c-0.8,0.4-2,0.7-3.8,0.7c-2.9,0-6.5-0.9-10.4-2.8c-1.2-0.5-2.5-0.8-4-0.8c-2.4,0-4.9,0.7-7,2c-2.7,1.6-4.5,3.8-4.9,6.3   c-0.3,1.6-0.3,4.9,3.3,8.2c2,1.8,4.9,3.5,8.7,5c1,0.4,2.2,0.8,3.4,1.2c4.3,1.4,10.9,3.4,12.6,7.5c0.9,2,0.5,4.7-1.1,7.9   c-0.1,0.1-0.1,0.2-0.1,0.3c-0.4,0.9-4.1,9.3-11.7,18.2c-4.3,5-9.1,9.3-14.2,12.5c-6.2,4-12.9,6.6-19.9,7.8   c-2.8,0.5-4.7,2.9-4.6,5.7c0,0.8,0.2,1.6,0.6,2.4l0,0c1.1,2.6,3.7,4.8,7.9,6.8c5.1,2.4,12.8,4.4,22.9,6c0.5,1,1,3.4,1.4,5   c0.4,1.8,0.8,3.6,1.3,5.5c0.6,2.1,2.2,4.6,6.3,4.6c1.5,0,3.3-0.3,5.4-0.7c3-0.6,7.1-1.4,12.3-1.4c2.8,0,5.8,0.3,8.8,0.7   c5.7,1,10.7,4.4,16.4,8.4c8.4,5.9,17.8,12.6,32.3,12.6c0.4,0,0.8,0,1.2,0c0.5,0,1.1,0,1.7,0c14.5,0,23.9-6.7,32.3-12.6l0,0   c5.7-4,10.6-7.5,16.4-8.4c3-0.5,5.9-0.7,8.8-0.7c4.9,0,8.8,0.6,12.3,1.3c2.3,0.4,4,0.7,5.4,0.7h0.1h0.1c3,0,5.2-1.6,6-4.5   c0.6-1.9,0.9-3.6,1.3-5.4c0.3-1.5,0.9-4,1.4-5c10-1.6,17.7-3.6,22.8-5.9c4.2-1.9,6.8-4.1,7.9-6.7c0.3-0.8,0.5-1.6,0.6-2.4   C373,309.1,371,306.6,368.2,306.1z" fill="#FFFFFF" id="Snapchat_1_" stroke="#000000" stroke-miterlimit="10" stroke-width="6"/></g></svg>